<?xml version="1.0" encoding="UTF-8" standalone="no"?>
<svg
   width="16"
   height="16"
   version="1.1"
   id="svg8"
   sodipodi:docname="com.github.azab246.mushroom-symbolic.svg"
   inkscape:version="1.2.1 (9c6d41e410, 2022-07-14)"
   xml:space="preserve"
   xmlns:inkscape="http://www.inkscape.org/namespaces/inkscape"
   xmlns:sodipodi="http://sodipodi.sourceforge.net/DTD/sodipodi-0.dtd"
   xmlns="http://www.w3.org/2000/svg"
   xmlns:svg="http://www.w3.org/2000/svg"><defs
     id="defs12" /><sodipodi:namedview
     id="namedview10"
     pagecolor="#505050"
     bordercolor="#eeeeee"
     borderopacity="1"
     inkscape:showpageshadow="0"
     inkscape:pageopacity="0"
     inkscape:pagecheckerboard="0"
     inkscape:deskcolor="#505050"
     showgrid="false"
     inkscape:zoom="11.313709"
     inkscape:cx="2.4748737"
     inkscape:cy="11.313708"
     inkscape:window-width="1440"
     inkscape:window-height="831"
     inkscape:window-x="0"
     inkscape:window-y="32"
     inkscape:window-maximized="1"
     inkscape:current-layer="layer1" /><g
     inkscape:groupmode="layer"
     id="layer1"
     inkscape:label="Layer 1"
     transform="matrix(1.1831718,0,0,1.1831718,-0.76305511,-0.65870859)"><path
       style="display:inline;fill:#2e3436;fill-opacity:1;fill-rule:evenodd;stroke-width:0.0596882;stroke-linecap:round;stroke-linejoin:round;paint-order:fill markers stroke"
       d="M 5.8134424,8.5243883 C 5.6602835,9.4972153 5.4504433,10.554372 5.3927732,11.624149 5.3386177,12.924519 6.349818,13.557873 7.4406028,13.621751 8.7242856,13.545472 9.572379,12.935264 9.5735839,11.624149 9.4585534,10.587278 9.2732375,9.5077569 9.1095466,8.5243883 Z"
       id="path300"
       sodipodi:nodetypes="cccccc" /><path
       id="path398-7"
       style="display:inline;fill:#2e3436;fill-opacity:1;fill-rule:evenodd;stroke-width:0.0596882;stroke-linecap:round;stroke-linejoin:round;paint-order:fill markers stroke"
       d="m 7.3085166,1.359375 c -1.7707533,0 -3.2305331,1.0986465 -3.8730468,1.7265625 -0.8227572,0.8734479 -1.4235386,2.0094803 -1.4765625,3.4394531 -0.011881,0.7461702 0.4877205,1.4273823 1.1269531,1.7499999 1.6007066,0.7049836 7.1309886,0.6605057 8.7343746,0 C 12.698901,7.802222 12.948339,7.1881594 12.986251,6.5253906 12.917473,4.9826975 12.661898,4.3262907 11.348439,2.8927257 10.124477,1.7605463 8.6577313,1.3199542 7.3085166,1.359375 Z"
       sodipodi:nodetypes="cccccccc" /></g></svg>
